Coordinates
version=1
nRows=4
nColumns=63
inDegrees=yes

Units are S.I. units (second, meters, Newtons, ...)
If the header above contains a line with 'inDegrees', this indicates whether rotational values are in degrees (yes) or radians (no).

endheader
time	pelvis_tilt	pelvis_list	pelvis_rotation	pelvis_tx	pelvis_ty	pelvis_tz	hip_flexion_r	hip_adduction_r	hip_rotation_r	knee_angle_r	knee_angle_r_beta	ankle_angle_r	subtalar_angle_r	mtp_angle_r	hip_flexion_l	hip_adduction_l	hip_rotation_l	knee_angle_l	knee_angle_l_beta	ankle_angle_l	subtalar_angle_l	mtp_angle_l	L5_S1_Flex_Ext	L5_S1_Lat_Bending	L5_S1_axial_rotation	L4_L5_Flex_Ext	L4_L5_Lat_Bending	L4_L5_axial_rotation	L3_L4_Flex_Ext	L3_L4_Lat_Bending	L3_L4_axial_rotation	L2_L3_Flex_Ext	L2_L3_Lat_Bending	L2_L3_axial_rotation	L1_L2_Flex_Ext	L1_L2_Lat_Bending	L1_L2_axial_rotation	L1_T12_Flex_Ext	L1_T12_Lat_Bending	L1_T12_axial_rotation	Abs_r3	Abs_r2	Abs_r1	Abs_t1	Abs_t2	neck_flexion	neck_bending	neck_rotation	arm_flex_r	arm_add_r	arm_rot_r	elbow_flex_r	pro_sup_r	wrist_flex_r	wrist_dev_r	arm_flex_l	arm_add_l	arm_rot_l	elbow_flex_l	pro_sup_l	wrist_flex_l	wrist_dev_l
      2.76666667	      1.18257762	     -4.95029781	     84.84819618	      0.16871447	      0.71415532	      0.75601951	     10.95952553	      1.45568504	      0.78207471	     17.70018600	      0.30892652	     35.47440138	      3.51475477	      0.00000000	      8.18058223	     -2.16983170	    -13.17350335	     12.62813375	      0.22040251	     38.42934401	     10.31276050	      0.00000000	     -0.31249791	     -0.39983615	     -0.72914362	     -0.58033987	     -0.53178208	     -0.77471509	     -0.51340282	     -0.97216162	     -0.77471509	     -0.35715386	     -0.97216162	     -0.63800067	     -0.29018556	     -0.81534588	     -0.59242919	     -0.17856131	     -0.61934620	     -0.54685771	     -2.23214132	     -4.52302652	     -4.05527806	      0.00000000	      0.00000000	     -4.29366235	     -0.08196482	      3.58513194	    172.06149209	   -161.92978261	    182.91921668	     73.89095224	     73.36604218	     10.91810449	     -2.53116607	    -13.55692073	    -22.76093509	      6.89642998	     71.93590293	     85.38214805	      0.56713755	     -7.09360454
      2.78333333	      0.79224996	     -5.07503721	     85.07917170	      0.16903553	      0.71134882	      0.75765367	     11.67380647	      1.12677115	      1.10800659	     18.75182660	      0.32728111	     35.78048239	      2.27709718	      0.00000000	      8.60480692	     -1.71528068	    -11.94138934	     12.86058777	      0.22445960	     38.38843476	      9.44086408	      0.00000000	     -0.33074309	     -0.47000918	     -0.83445078	     -0.61422299	     -0.62511221	     -0.88660395	     -0.54337782	     -1.14278032	     -0.88660395	     -0.37800628	     -1.14278032	     -0.73014443	     -0.30712803	     -0.95844272	     -0.67799126	     -0.18898660	     -0.72804422	     -0.62583808	     -2.36246481	     -5.31683784	     -4.64096489	      0.00000000	      0.00000000	     -3.18472569	      0.44440245	      3.78617407	    178.15963562	   -162.55041102	    191.57677773	     59.50418268	     81.56508902	      5.85320153	     -6.55510845	     -7.89861830	    -22.30970013	     14.22206879	     57.30920155	     85.19060100	     -3.33315479	     -5.65852194
      2.80000000	      0.03775664	     -5.06631928	     85.12417070	      0.17039600	      0.70731211	      0.76023068	     12.64483260	      0.45552843	      1.43695424	     20.39244806	      0.35591536	     36.72569054	      1.50465803	      0.00000000	      9.07108826	     -1.03318353	    -11.42387370	     13.36580503	      0.23327731	     38.68893908	      9.29194391	      0.00000000	     -0.39340088	     -0.60392255	     -0.86488711	     -0.73058478	     -0.80321700	     -0.91894255	     -0.64631831	     -1.46837730	     -0.91894255	     -0.44961787	     -1.46837730	     -0.75677622	     -0.36531206	     -1.23151887	     -0.70272078	     -0.22478926	     -0.93547603	     -0.64866533	     -2.81002316	     -6.83169270	     -4.81024264	      0.00000000	      0.00000000	     -1.02104437	      1.65858217	      3.53966634	    184.11313535	   -164.48447729	    202.29208348	     45.25211880	     85.22959375	      1.24545903	     -9.39898112	     -2.54406084	    -21.30382971	     21.54764319	     43.66325718	     85.03112961	     -6.75025510	     -4.02880447
      2.81666667	     -1.21634773	     -5.18061718	     84.86824382	      0.17261100	      0.70187191	      0.76371012	     14.29948372	     -0.63324887	      2.06531594	     22.86268387	      0.39902911	     38.26109508	      0.96754133	      0.00000000	      9.88791339	      0.05352399	    -11.18258159	     14.14634633	      0.24690032	     39.21775851	      9.16960730	      0.00000000	     -0.45646339	     -0.80270748	     -0.77427473	     -0.84769817	     -1.06760094	     -0.82266690	     -0.74992371	     -1.95170296	     -0.82266690	     -0.52169201	     -1.95170296	     -0.67749039	     -0.42387191	     -1.63688109	     -0.62909822	     -0.26082318	     -1.24339388	     -0.58070605	     -3.26047237	     -9.08038752	     -4.30628378	      0.00000000	      0.00000000	      2.03597286	      3.08429719	      2.59166455	    188.75533670	   -167.24207920	    215.56410287	     33.76640070	     85.83870488	     -4.97377118	    -10.45832996	      1.51813867	    -20.70695532	     29.65950958	     33.59114213	     84.17521316	    -10.02051348	     -1.52377286
